<svg width="1338" height="874" viewBox="0 0 1338 874" fill="none" xmlns="http://www.w3.org/2000/svg">
<circle cx="663" cy="45" r="45" fill="white"/>
<path d="M663.277 152.588C672.445 152.555 682.355 158.374 690.411 169.956L690.501 170.084V170.241C690.501 296.207 706.273 381.963 740.743 448.16C775.208 514.347 828.398 561.04 903.366 608.819L903.616 608.978L903.595 609.274C903.377 612.507 901.525 616.706 897.415 621.407C893.299 626.116 886.889 631.363 877.481 636.7C858.669 647.371 827.822 658.424 779.203 666.229C774.663 667.387 767.393 670.067 760.369 674.342C753.559 678.487 747.027 684.101 743.403 691.232C788.823 690.85 858.858 686.183 922.411 673.4C954.377 666.971 984.684 658.492 1009.39 647.484C1034.09 636.475 1053.12 622.965 1062.65 606.512C1063.16 605.408 1063.3 603.66 1062.6 601.294C1061.89 598.92 1060.33 595.959 1057.48 592.482C1051.8 585.527 1041.03 576.564 1021.86 566.18L1021.84 566.171C1019.64 564.866 1015.11 562.919 1007.75 560.436C1000.41 557.957 990.276 554.952 976.898 551.525C950.14 544.671 910.404 536.132 854.014 526.734L853.969 526.726L853.925 526.711C844.707 523.358 831.749 516.292 822.843 505.966C813.916 495.616 809.044 481.958 816.137 465.542L816.272 465.23L816.612 465.241C866.385 466.742 948.011 473.544 1031.15 489.074C1114.28 504.601 1198.98 528.866 1254.87 565.322C1324.66 610.846 1343.53 650.292 1336.02 683.565C1332.27 700.167 1321.96 715.141 1308.31 728.48C1294.65 741.821 1277.61 753.554 1260.35 763.672C1181.75 809.732 1016.15 874.74 625.095 873.74L624.63 873.739L624.598 873.275C623.759 861.186 626.4 842.575 637.05 825.97C647.714 809.344 666.388 794.763 697.533 790.745C716.931 788.242 751.305 786.677 794.028 784.186C836.767 781.694 887.896 778.273 940.85 772.056C1046.79 759.618 1159.92 736.001 1227.8 686.337L1227.83 686.313L1227.87 686.295C1248.43 675.89 1258.15 656.006 1250.87 634.652C1243.6 613.324 1219.31 590.371 1171.49 573.906C1171.16 576.48 1172.27 579.581 1174.24 583.164C1176.35 586.993 1179.34 591.225 1182.33 595.779C1185.3 600.314 1188.24 605.147 1190.19 610.112C1192.14 615.079 1193.11 620.213 1192.09 625.339L1192.08 625.349L1192.08 625.36C1190.59 631.414 1185.54 639.391 1175.71 648.436C1165.88 657.491 1151.23 667.651 1130.48 678.062C1088.98 698.884 1023.01 720.729 922.174 736.734C670.115 776.743 469.539 763.245 300.457 714.721C258.188 702.591 226.153 690.173 202.496 677.808C178.845 665.447 163.537 653.121 154.755 641.161C145.962 629.185 143.712 617.57 146.194 606.692C148.593 596.176 155.399 586.411 164.838 577.708C150.105 577.591 116.037 586.78 88.5336 625.486C85.7559 631.736 82.4375 648.81 91.5414 667.017C94.3589 672.652 100.897 678.905 109.77 685.311C118.625 691.705 129.742 698.209 141.636 704.359C165.425 716.659 192.274 727.523 210.246 733.264C219.238 736.137 229.669 739.135 240.64 742.307C251.608 745.479 263.115 748.824 274.247 752.389C296.49 759.512 317.321 767.534 329.4 776.844C353.482 795.408 363.565 815.015 366.088 830.661C367.343 838.443 367.104 843.149 366.265 846.246C365.42 849.364 363.97 850.821 362.985 852.052C362.848 852.223 362.648 852.29 362.536 852.321C362.398 852.359 362.236 852.382 362.062 852.397C361.712 852.428 361.242 852.43 360.671 852.41C359.524 852.368 357.905 852.23 355.872 852.004C351.804 851.55 346.039 850.738 338.993 849.617C324.898 847.373 305.656 843.888 284.556 839.543C242.368 830.855 192.703 818.722 161.907 806.204C131.147 793.7 95.2332 777.308 65.0023 756.841C34.7854 736.384 10.1614 711.799 2.11266 682.875C-5.96379 653.85 9.58353 621.917 40.7562 593.248C71.9497 564.56 118.898 539.027 173.953 522.76C283.914 490.272 416.887 456.776 586.829 459.237C596.323 445.014 610.673 425.179 622.253 382.921C633.9 340.42 642.75 275.221 641.001 170.25L640.999 170.145L641.039 170.049C645.799 158.541 654.078 152.621 663.277 152.588ZM536.546 522.742C432.782 532.993 366.985 546.499 327.304 560.393C307.467 567.339 294.123 574.394 285.825 581.213C277.528 588.03 274.207 594.671 274.596 600.772C275.208 610.36 281.109 618.597 288.147 624.973C295.192 631.355 303.444 635.934 308.904 638.202L309.016 638.249L309.138 638.238C439.318 627.022 510.931 555.619 536.983 523.555L537.74 522.625L536.546 522.742Z" fill="white"/>
</svg>
